<?xml version="1.0" encoding="utf-8"?>
<!-- Generator: Adobe Illustrator 26.3.1, SVG Export Plug-In . SVG Version: 6.00 Build 0)  -->
<svg version="1.1" id="Capa_1" xmlns="http://www.w3.org/2000/svg" xmlns:xlink="http://www.w3.org/1999/xlink" x="0px" y="0px"
	 viewBox="0 0 404.7 404.7" style="enable-background:new 0 0 404.7 404.7;" xml:space="preserve">
<style type="text/css">
	.st0{fill:#FFFFFF;}
	.st1{fill:#014B8E;}
	.st2{fill:#F57D31;}
</style>
<circle class="st0" cx="202.4" cy="196.7" r="194.9"/>
<g>
	<g>
		<path class="st1" d="M193.7,168.6c9-8.4,22.6-10.9,34.2-7.2c4.4,1.3,9.3,3.7,10.3,8.6c0.1,4-1.6,7.9-2.2,11.9
			c-5.5-5.1-13.5-6.8-20.8-5.6c-7.9,1.6-13.4,8.4-16.3,15.5c-3.4,8.4-4.9,18-1.9,26.7c1.6,4.7,5.3,8.7,10.1,10.1
			c7.6,2.3,15.7-0.6,21.3-5.8c-1.1,5.1-1.7,10.3-3.1,15.3c-1.4,4.1-6,5.6-9.9,6.3c-10.2,1.9-22.1-0.2-29.3-8.2
			c-7.1-7.8-8.7-18.8-8.4-28.9C178.3,193,183.1,178.4,193.7,168.6z"/>
		<g>
			<path class="st1" d="M125.3,163.1c7.6-1.4,15.3-2.2,23.1-2c7.1,0.4,14.7,1.9,19.9,7c6.2,6,6.4,16.5,1.4,23.3
				c-3.1,4.1-7.5,7.1-12.5,8.2c3.9,1.6,7.8,4,9.7,7.9c4.5,9.3,2.1,21.4-5.7,28.3c-6.1,5.6-14.7,7.6-22.8,8.2c-6,0.2-12.2,0-18-1.8
				c-3.1-0.9-5.5-3.5-6.5-6.5c-1.5-4.4-0.9-9.3,0-13.8C117.7,202.3,121.3,182.7,125.3,163.1z M139.5,175.1c-1,5.6-2.3,11.2-3.1,16.9
				c-0.3,1.6,1.6,2.3,2.9,2c5.1,0.2,10.9-0.4,14.7-4.3c3.4-3.6,3.9-10.8-0.9-13.5C149,173.9,144,175,139.5,175.1z M133.5,206.8
				c-1.3,5.4-2.1,10.9-3.3,16.3c-0.4,2.3-1.5,4.9,0.2,7c5.5,0,11.4,0.4,16.1-2.8c5.7-3.3,7.6-12.3,2.9-17.2
				C145.1,206.1,138.9,207,133.5,206.8z"/>
		</g>
		<g>
			<path class="st1" d="M248.8,163.5c5.3-1.7,10.9-1.8,16.5-2c7.6-0.1,15.7,0.1,22.4,4.2c5.2,2.9,8.2,8.6,8.9,14.4
				c1.8,12.9-4.6,26.7-16.2,32.9c-7.6,4.4-16.6,4.6-25.1,4c-1.4,6.4-2.3,12.8-3.8,19.2c-0.8,3.4-2.9,6.7-6.3,7.7
				c-3.9,0.4-7.9,0-11.8,0.1C238.8,217.3,243.5,190.4,248.8,163.5z M264.1,175.7c-1.5,7.8-3,15.6-4.4,23.3c-0.5,1.6,0.6,3,2,3.7
				c4.1,0.8,8.5,0.1,12.2-2.1c6.9-4.1,9.8-13.6,6.6-20.8C277.2,174.2,269.7,175.2,264.1,175.7z"/>
		</g>
		<path class="st1" d="M76.7,167.5c2.7-1.4,6.2-0.7,8.2,1.5c3.1,4.7,3.2,10.6,3.1,16c-0.1,4.4-0.8,8.8-2.4,13
			c-5.3-6.9-12.1-12.4-19.8-16.4C67.7,176,71.2,170.4,76.7,167.5z"/>
		<path class="st1" d="M304.4,181.5c2.5-5.8,5.8-11.9,11.9-14.4c3.1-1.2,6.3,0.4,8.2,2.9c3.7,8.9,2.8,18.9-0.1,27.9
			C318.9,191.2,312.2,185.6,304.4,181.5z"/>
	</g>
	<g>
		<path class="st2" d="M84.9,169c7.9,5,14.3,12.1,19.6,19.8c4.3,6.4,4.8,15.4,0.6,22c-5.2,8.6-12.7,15.4-20.5,21.5
			c-4.4,3.3-9.7,7.2-15.5,5.6c-5.4-1.4-8.8-6.3-11.2-11c11.6-6.8,23-15.9,27.7-29c1.6-4.1,2.3-8.5,2.4-13
			C88.1,179.6,88,173.8,84.9,169z"/>
		<path class="st2" d="M324.6,170.1c7,3.5,12,9.9,16.7,16c3.7,4.5,6,10.2,5.5,16.1c-0.4,5-3,9.4-6,13.3c-6,7.7-13.4,14.3-21.4,19.8
			c-3.3,2.1-7.4,4-11.4,2.8c-5.4-1.4-9.1-6.2-11.3-11.1c11.8-6.6,22.8-16,27.8-28.9C327.4,189,328.2,179,324.6,170.1z"/>
	</g>
</g>
</svg>
