<?xml version="1.0" encoding="utf-8"?>
<!-- Generator: Adobe Illustrator 25.2.1, SVG Export Plug-In . SVG Version: 6.00 Build 0)  -->
<svg version="1.1" id="Capa_1" xmlns="http://www.w3.org/2000/svg" xmlns:xlink="http://www.w3.org/1999/xlink" x="0px" y="0px"
	 viewBox="0 0 404.72 404.72" style="enable-background:new 0 0 404.72 404.72;" xml:space="preserve">
<style type="text/css">
	.st0{fill-rule:evenodd;clip-rule:evenodd;fill:#FFD100;}
	.st1{fill-rule:evenodd;clip-rule:evenodd;fill:#009DE2;}
	.st2{fill-rule:evenodd;clip-rule:evenodd;fill:#113984;}
	.st3{fill-rule:evenodd;clip-rule:evenodd;fill:#172C70;}
</style>
<path class="st0" d="M367.59,246.23H37.14c-6.6,0-12-5.4-12-12V128.93c0-6.6,5.4-12,12-12h330.45c6.6,0,12,5.4,12,12v105.29
	C379.59,240.83,374.19,246.23,367.59,246.23z"/>
<g>
	<path class="st1" d="M83.88,160.07h21.25c11.41,0,15.7,5.77,15.04,14.27c-1.09,14.01-9.56,21.76-20.8,21.76H93.7
		c-1.54,0-2.58,1.02-2.99,3.78l-2.43,16.06c-0.16,1.04-0.71,1.66-1.53,1.73H73.42c-1.25,0-1.7-0.96-1.37-3.04l8.14-51.52
		C80.51,161.05,81.64,160.07,83.88,160.07z"/>
	<path class="st2" d="M156.41,159.11c7.17,0,13.78,3.89,12.88,13.58c-1.07,11.49-7.27,17.89-17.01,17.92h-8.5
		c-1.23,0-1.81,1-2.14,3.05l-1.64,10.46c-0.25,1.58-1.06,2.36-2.26,2.36h-7.91c-1.26,0-1.7-0.81-1.42-2.61l6.54-41.93
		c0.32-2.06,1.11-2.83,2.51-2.83H156.41L156.41,159.11z M143.52,181.56l6.45,0c4.03-0.15,6.71-2.94,6.98-7.98
		c0.17-3.11-1.93-5.33-5.28-5.32l-6.07,0.03L143.52,181.56L143.52,181.56z M190.8,203.27c0.72-0.66,1.46-1,1.35-0.19l-0.26,1.94
		c-0.13,1.01,0.27,1.55,1.21,1.55h7.03c1.18,0,1.76-0.48,2.05-2.31l4.33-27.19c0.22-1.37-0.11-2.04-1.15-2.04h-7.73
		c-0.7,0-1.04,0.39-1.22,1.46l-0.29,1.67c-0.15,0.87-0.55,1.02-0.92,0.15c-1.31-3.11-4.66-4.5-9.35-4.4
		c-10.84,0.22-18.16,8.46-18.94,19.01c-0.6,8.16,5.25,14.57,12.95,14.57C185.48,207.49,187.99,205.82,190.8,203.27L190.8,203.27z
		 M184.92,199.09c-4.67,0-7.92-3.72-7.24-8.29c0.68-4.56,5.04-8.29,9.71-8.29c4.67,0,7.92,3.72,7.24,8.29
		C193.95,195.36,189.59,199.09,184.92,199.09L184.92,199.09z M220.3,174.95h-7.1c-1.47,0-2.07,1.08-1.6,2.45l8.85,25.92l-8.72,12.33
		c-0.73,1.03-0.17,1.97,0.86,1.97h8.01c1.2,0,1.78-0.31,2.38-1.17l27.22-39.05c0.84-1.2,0.44-2.46-0.93-2.46l-7.58-0.01
		c-1.3,0-1.82,0.51-2.57,1.6l-11.36,16.47l-5.05-16.5C222.41,175.47,221.66,174.95,220.3,174.95z"/>
	<path class="st1" d="M278.53,159.11c7.17,0,13.78,3.89,12.88,13.58c-1.07,11.49-7.27,17.89-17.01,17.92h-8.5
		c-1.23,0-1.81,1-2.14,3.05l-1.64,10.46c-0.25,1.58-1.06,2.36-2.26,2.36h-7.91c-1.26,0-1.7-0.81-1.42-2.61l6.54-41.93
		c0.32-2.06,1.11-2.83,2.51-2.83H278.53L278.53,159.11z M265.64,181.56l6.45,0c4.03-0.15,6.71-2.94,6.98-7.98
		c0.17-3.11-1.93-5.33-5.28-5.32l-6.07,0.03L265.64,181.56L265.64,181.56z M312.93,203.27c0.72-0.66,1.46-1,1.35-0.19l-0.26,1.94
		c-0.13,1.01,0.27,1.55,1.21,1.55h7.03c1.18,0,1.76-0.48,2.05-2.31l4.33-27.19c0.22-1.37-0.11-2.04-1.15-2.04h-7.73
		c-0.7,0-1.04,0.39-1.22,1.46l-0.29,1.67c-0.15,0.87-0.55,1.02-0.92,0.15c-1.31-3.11-4.66-4.5-9.35-4.4
		c-10.85,0.22-18.16,8.46-18.94,19.01c-0.6,8.16,5.25,14.57,12.95,14.57C307.61,207.49,310.11,205.82,312.93,203.27L312.93,203.27z
		 M307.04,199.09c-4.67,0-7.92-3.72-7.24-8.29c0.68-4.56,5.04-8.29,9.71-8.29c4.67,0,7.92,3.72,7.24,8.29
		C316.07,195.36,311.71,199.09,307.04,199.09L307.04,199.09z M339.47,206.62h-8.11c-0.64,0-1.09-0.51-0.99-1.12l7.14-45.17
		c0.1-0.62,0.7-1.12,1.35-1.12h8.11c0.64,0,1.09,0.51,0.99,1.12l-7.14,45.17C340.72,206.12,340.12,206.62,339.47,206.62z"/>
	<path class="st2" d="M70.6,142.34h21.27c5.99,0,13.1,0.19,17.85,4.39c3.18,2.8,4.84,7.26,4.46,12.05
		c-1.3,16.24-11.02,25.34-24.05,25.34H79.64c-1.79,0-2.97,1.18-3.47,4.39l-2.93,18.62c-0.19,1.21-0.71,1.92-1.67,2.01h-13.1
		c-1.45,0-1.97-1.11-1.59-3.52l9.44-59.74C66.69,143.48,68,142.34,70.6,142.34z"/>
	<path class="st3" d="M76.47,186.62l3.71-23.51c0.33-2.06,1.46-3.05,3.7-3.05h21.25c3.52,0,6.36,0.55,8.59,1.56
		c-2.14,14.45-11.48,22.49-23.73,22.49H79.5C78.12,184.11,77.09,184.82,76.47,186.62z"/>
</g>
</svg>
