<?xml version="1.0" encoding="utf-8"?>
<!-- Generator: Adobe Illustrator 25.2.1, SVG Export Plug-In . SVG Version: 6.00 Build 0)  -->
<svg version="1.1" id="Capa_1" xmlns="http://www.w3.org/2000/svg" xmlns:xlink="http://www.w3.org/1999/xlink" x="0px" y="0px"
	 viewBox="0 0 404.72 404.72" style="enable-background:new 0 0 404.72 404.72;" xml:space="preserve">
<style type="text/css">
	.st0{fill:#FFFFFF;}
	.st1{fill-rule:evenodd;clip-rule:evenodd;fill:#005DA0;}
</style>
<circle class="st0" cx="202.36" cy="196.68" r="194.88"/>
<g>
	<polygon class="st1" points="70.11,223.37 42.23,223.37 42.23,226.34 70.11,226.34 97.99,226.34 97.99,223.37 	"/>
	<path class="st1" d="M78.9,170.66c0,4.86-3.94,8.81-8.81,8.81c-4.87,0-8.8-3.95-8.8-8.81c0-4.87,3.94-8.81,8.8-8.81
		C74.96,161.85,78.9,165.79,78.9,170.66z"/>
	<path class="st1" d="M49.54,199.89v-2.95c0-4.86,3.95-8.81,8.81-8.81h23.48c4.86,0,8.81,3.95,8.81,8.81v2.95H49.54L49.54,199.89z
		 M89.17,180.76H51.01c-6.48,0-11.74,5.25-11.74,11.74v17.61c0,6.49,5.26,11.75,11.74,11.75h0.75c-1.38-1.55-2.22-3.59-2.22-5.84
		v-7.32h41.09v7.32c0,2.25-0.84,4.28-2.22,5.84h0.75c6.48,0,11.74-5.26,11.74-11.75V192.5C100.91,186.01,95.66,180.76,89.17,180.76z
		"/>
	<rect x="261.03" y="185.21" class="st1" width="7.35" height="32.32"/>
	<path class="st1" d="M244.26,199.94h-6.66v-8.78h6.66h1.26c2.53,0,3.23,0.29,4.24,1c0.97,0.69,1.71,1.98,1.72,3.34
		c0,1.11-0.49,2.41-1.72,3.34c-1.03,0.78-2.19,1.09-4.23,1.09H244.26L244.26,199.94z M257.98,190.59c-0.73-1.47-1.87-2.83-3.33-3.87
		c-1.55-1.1-3.56-1.51-4.2-1.51h-4.63h-1.55h-14.02v32.31h7.36v-11.7h6.66h1.03h3.83c0.53,0,1.47,0,1.98-0.11
		c0.51-0.1,0.79-0.14,1.63-0.43c1.01-0.35,2.03-1.02,2.77-1.65c1.04-0.89,2.02-2.15,2.64-3.62c0.63-1.49,0.94-2.77,0.94-4.43
		C259.09,193.71,258.73,192.22,257.98,190.59z"/>
	<path class="st1" d="M199.17,204.21l4.77-12.47l0.07,0.17l4.83,12.3H199.17L199.17,204.21z M207.76,185.21h-7.18L187,217.52h7.2
		l2.78-7.46h14.06l2.97,7.46h7.55L207.76,185.21z"/>
	<path class="st1" d="M148.32,204.22l4.77-12.48l0.07,0.18l4.83,12.3H148.32L148.32,204.22z M181.98,185.21v17.28
		c0,2.24,0.08,3.5-0.25,5.06c-0.08,0.41-0.35,0.92-0.59,1.32c-0.45,0.75-1.06,1.31-1.45,1.61c-0.31,0.25-0.97,0.65-1.52,0.83
		c-0.7,0.24-0.91,0.38-3.55,0.38h-6.42l-11.29-26.47h-7.18l-11.12,26.45h-13.37c-1.39,0-2.55-0.04-3.39-0.28
		c-0.84-0.25-1.69-0.69-2.45-1.47c-0.69-0.72-1.09-1.5-1.31-2.3c-0.34-1.25-0.55-2.51-0.65-3.27c-0.1-0.88-0.18-1.98-0.18-2.51
		c0-0.53,0.01-1.87,0.11-2.85c0.1-1.01,0.23-1.81,0.5-3.04c0.28-1.21,0.59-2.42,2.01-3.59c1.19-0.98,2.43-1.31,4.73-1.31h11.63
		v-5.85l-11.12,0c-0.62,0-1.38,0-2.16,0c-0.71,0-1.43,0.01-1.88,0.06c-1.17,0.14-1.73,0.26-3.04,0.73
		c-1.46,0.53-3.02,1.57-3.95,2.51c-0.94,0.95-1.41,1.57-1.89,2.32c-0.49,0.76-0.87,1.56-1.23,2.56c-0.36,1-0.6,1.8-0.84,2.91
		c-0.24,1.12-0.51,2.53-0.51,3.71l-0.04,2.19c0.08,2.64,0.54,4.74,1.32,6.95c0.73,2.09,2.01,4.16,3.89,5.68
		c1.48,1.2,3.09,1.95,4.61,2.33c1.53,0.38,2.24,0.36,5.57,0.36h11.17h3.07h4.12l2.79-7.46h14.06l2.96,7.46h3.48h4.07h4.78
		c0.21,0,1.13,0,2.17,0c1.03,0,1.71,0,2.35-0.08c0.58-0.08,1.19-0.21,1.76-0.38c0.57-0.17,1.17-0.4,1.98-0.85
		c1.09-0.6,1.72-1.1,2.49-1.86c0.71-0.71,1.35-1.59,1.7-2.26c0.34-0.68,0.77-1.47,1.05-2.69c0.28-1.21,0.33-2.92,0.33-4.95v-19.25
		H181.98z"/>
	<path class="st1" d="M300.71,203.22v-18.01h-7.33v10.59v7.12v2.54c0,3.72-1.87,6.26-7.31,6.26c-5.45,0-7.32-2.54-7.32-6.26v-2.54
		v-7.12v-10.59h-7.33v18.01v2.8c0,6,2.4,11.79,14.65,11.79c12.25,0,14.64-5.79,14.64-11.79V203.22z"/>
	<path class="st1" d="M343.08,204.21l4.77-12.47l0.06,0.17l4.83,12.3H343.08L343.08,204.21z M323.27,198.85
		c-1.03,0.78-2.19,1.09-4.24,1.09h-1.27h-6.67v-8.78h6.67h1.27c2.53,0,3.23,0.29,4.24,1c0.97,0.69,1.71,1.98,1.72,3.34
		C325,196.61,324.5,197.91,323.27,198.85L323.27,198.85z M351.66,185.21h-7.18l-12.62,30.05l-5.82-9.9c0.06-0.02,0.13-0.04,0.2-0.07
		c1.01-0.35,2.03-1.02,2.77-1.65c1.04-0.89,2.02-2.16,2.64-3.62c0.64-1.49,0.94-2.77,0.94-4.43c0-1.87-0.36-3.37-1.12-5
		c-0.73-1.47-1.88-2.83-3.33-3.87c-1.55-1.1-3.57-1.51-4.2-1.51h-4.63h-1.56h-14.02v32.32h7.35v-11.7h6.67h1.04h0.18l6.62,11.7h7.6
		v0h4.9l2.78-7.46h14.07l2.96,7.46h7.55L351.66,185.21z"/>
</g>
</svg>
