<?xml version="1.0" encoding="utf-8"?>
<!-- Generator: Adobe Illustrator 25.3.1, SVG Export Plug-In . SVG Version: 6.00 Build 0)  -->
<svg version="1.1" id="Capa_1" xmlns="http://www.w3.org/2000/svg" xmlns:xlink="http://www.w3.org/1999/xlink" x="0px" y="0px"
	 viewBox="0 0 841.9 381.4" style="enable-background:new 0 0 841.9 381.4;" xml:space="preserve">
<style type="text/css">
	.st0{fill:#FFFFFF;}
	.st1{fill:#09365F;}
	.st2{fill:#E30613;}
	.st3{fill-rule:evenodd;clip-rule:evenodd;fill:#09365F;}
</style>
<rect class="st0" width="841.9" height="381.4"/>
<g>
	<path class="st1" d="M138.3,117l-22.1-15.2l4.7-0.5l2.4-0.3l136.3-14.8c2.1-0.2,3.7-2,3.7-4.1v0c0-2.4-2.1-4.3-4.5-4.1l-150.9,16
		c-3.5,0.4-6.2,3.3-6.2,6.8v226.8l29.3,20.8l20-2v-212c0-4.5,3.4-8.3,7.9-8.7l120.1-11.7c2.9-0.3,5.1-2.7,5.1-5.6v0
		c0-3.3-2.9-5.9-6.2-5.6L138.3,117z"/>
	<g>
		<path class="st2" d="M185,153.7h17.2c2.2,0,4,1.8,4,4v75.1c0,2.2,1.8,4,4,4h35.9c2.2,0,4,1.8,4,4v18.7c0,2.2-1.8,4-4,4H185
			c-2.2,0-4-1.8-4-4V157.7C181,155.5,182.8,153.7,185,153.7z"/>
		<path class="st2" d="M265.3,153.7h17.3c2.2,0,4,1.8,4,4v101.8c0,2.2-1.8,4-4,4h-17.3c-2.2,0-4-1.8-4-4V157.7
			C261.3,155.5,263.1,153.7,265.3,153.7z"/>
		<path class="st2" d="M303.2,157.7c0-2.2,1.8-4,4-4h42.5c11.4,0,19.4,3.5,24.7,9.9c3.6,4.4,5.8,10.2,5.8,17.7v0.3
			c0,9.7-3.5,16.4-8.7,20.9c-2,1.7-1.8,5,0.5,6.4c7.6,4.6,12.3,11.9,12.3,24v0.3c0,18.8-12.7,30.3-34.3,30.3h-42.8c-2.2,0-4-1.8-4-4
			V157.7z M343.5,197.4c7.6,0,11.9-3.1,11.9-9.6v-0.3c0-6-3.9-9.4-11.4-9.4h-16.3v19.3H343.5z M347.1,239c7.6,0,12.1-3.6,12.1-10
			v-0.3c0-6-3.9-9.9-12.3-9.9h-19.2V239H347.1z"/>
		<path class="st2" d="M395.8,157.7c0-2.2,1.8-4,4-4h38.9c13.9,0,23.5,4.4,29.5,11.9c5.3,6.3,8,14.7,8,25.6v0.3
			c0,15.1-6,25.6-15.4,31.8c-1.8,1.2-2.4,3.5-1.3,5.3l16.3,28.9c1.5,2.7-0.4,6-3.5,6h-19.8c-1.5,0-2.8-0.8-3.5-2.1L432,230.2h-0.3
			H421v29.3c0,2.2-1.8,4-4,4h-17.2c-2.2,0-4-1.8-4-4V157.7z M437.5,206.4c8.6,0,13.5-5,13.5-13v-0.3c0-8.6-5.2-13-13.6-13H421v26.4
			H437.5z"/>
		<path class="st2" d="M493,153.7h65c2.2,0,4,1.8,4,4v17.9c0,2.2-1.8,4-4,4h-44.1v16.6h39.5c2.2,0,4,1.8,4,4v16c0,2.2-1.8,4-4,4
			h-39.5v17.4h44.7c2.2,0,4,1.8,4,4v17.9c0,2.2-1.8,4-4,4H493c-2.2,0-4-1.8-4-4V157.7C489,155.5,490.8,153.7,493,153.7z"/>
		<path class="st2" d="M575.4,157.7c0-2.2,1.8-4,4-4h38.9c13.9,0,23.5,4.4,29.5,11.9c5.3,6.3,8,14.7,8,25.6v0.3
			c0,15.1-6,25.6-15.4,31.8c-1.8,1.2-2.4,3.5-1.3,5.3l16.3,28.9c1.5,2.7-0.4,6-3.5,6h-19.8c-1.5,0-2.8-0.8-3.5-2.1l-17.1-31.2h-0.3
			h-10.8v29.3c0,2.2-1.8,4-4,4h-17.2c-2.2,0-4-1.8-4-4V157.7z M617.1,206.4c8.6,0,13.5-5,13.5-13v-0.3c0-8.6-5.2-13-13.6-13h-16.5
			v26.4H617.1z"/>
		<path class="st2" d="M673.1,153.7h17.3c2.2,0,4,1.8,4,4v101.8c0,2.2-1.8,4-4,4h-17.3c-2.2,0-4-1.8-4-4V157.7
			C669.1,155.5,670.9,153.7,673.1,153.7z M688.8,118.7l13.9,5.4c2.6,1,3.4,4.4,1.4,6.5l-13.8,14.5c-0.8,0.8-1.8,1.2-2.9,1.2H678
			c-2.9,0-4.8-3-3.6-5.7l9.3-19.9C684.6,118.8,686.8,117.9,688.8,118.7z"/>
		<path class="st2" d="M745.1,152.9h18.6c1.7,0,3.2,1.1,3.8,2.7l35.8,102.6c0.9,2.6-1,5.3-3.8,5.3H781c-1.7,0-3.2-1.1-3.8-2.7
			l-4.8-14.2c-0.5-1.6-2.1-2.7-3.8-2.7h-29.2c-1.7,0-3.2,1.1-3.8,2.7l-4.7,14.1c-0.5,1.6-2.1,2.7-3.8,2.7h-17.9
			c-2.7,0-4.7-2.7-3.8-5.3l35.8-102.6C741.9,154,743.4,152.9,745.1,152.9z M764.3,220.2L754.2,189L744,220.2H764.3z"/>
	</g>
	<g>
		<g>
			<path class="st1" d="M190.9,293.3v49.3c0,2.5-2,4.4-4.4,4.4h-1.1c-2.5,0-4.4-2-4.4-4.4v-49.3c0-2.5,2-4.4,4.4-4.4h1.1
				C188.9,288.9,190.9,290.9,190.9,293.3z"/>
			<path class="st1" d="M261.8,288.9h1.1c2.5,0,4.4,2,4.4,4.4v49.3c0,2.5-2,4.4-4.4,4.4h-1.7c-1.4,0-2.7-0.6-3.5-1.8l-28.2-37.1
				c-0.6-0.8-1.9-0.4-1.9,0.6v33.8c0,2.5-2,4.4-4.4,4.4h-1.1c-2.5,0-4.4-2-4.4-4.4v-49.3c0-2.5,2-4.4,4.4-4.4h2.6
				c1.4,0,2.7,0.6,3.5,1.8l27.3,36c0.6,0.8,1.9,0.4,1.9-0.6v-32.7C257.3,290.9,259.3,288.9,261.8,288.9z"/>
			<path class="st1" d="M312.9,347.1h-1.2c-2.5,0-4.4-2-4.4-4.4v-44.3h-13.7c-2.5,0-4.4-2-4.4-4.4v-0.6c0-2.5,2-4.4,4.4-4.4h37.5
				c2.5,0,4.4,2,4.4,4.4v0.6c0,2.5-2,4.4-4.4,4.4h-13.7v44.3C317.4,345.1,315.4,347.1,312.9,347.1z"/>
			<path class="st1" d="M395.2,298.1h-27.9v15h24.2c2.5,0,4.4,2,4.4,4.4v0.3c0,2.5-2,4.4-4.4,4.4h-24.2v15.5h28.3
				c2.5,0,4.4,2,4.4,4.4v0.3c0,2.5-2,4.4-4.4,4.4h-33.8c-2.5,0-4.4-2-4.4-4.4v-49.3c0-2.5,2-4.4,4.4-4.4h33.4c2.5,0,4.4,2,4.4,4.4
				v0.3C399.7,296.1,397.7,298.1,395.2,298.1z"/>
			<path class="st1" d="M469.6,342.5c-1.7,1.1-3.6,2.1-5.6,2.9c-2,0.8-4.1,1.5-6.4,2c-2.3,0.5-4.7,0.7-7.2,0.7
				c-4.5,0-8.5-0.8-12.2-2.3c-3.6-1.5-6.8-3.6-9.3-6.3c-2.6-2.7-4.6-5.9-6-9.5c-1.4-3.7-2.1-7.6-2.1-11.9c0-4.1,0.7-8,2.2-11.6
				c1.4-3.7,3.5-6.9,6.1-9.6c2.6-2.7,5.7-4.9,9.3-6.5c3.6-1.6,7.6-2.4,11.9-2.4c2.5,0,4.8,0.2,6.8,0.5c2,0.4,3.9,0.9,5.7,1.5
				c1.7,0.7,3.4,1.5,4.9,2.5c0.2,0.1,0.4,0.3,0.6,0.4c2.2,1.4,2.6,4.5,1,6.5l-0.6,0.7c-1.5,1.8-4.2,2.2-6.1,0.9l0,0
				c-1.1-0.8-2.3-1.4-3.6-2c-1.3-0.5-2.6-0.9-4.1-1.2c-1.5-0.3-3.1-0.5-4.9-0.5c-2.6,0-5,0.5-7.3,1.6c-2.3,1.1-4.2,2.6-5.9,4.5
				c-1.7,1.9-3,4.1-3.9,6.6c-1,2.5-1.4,5.2-1.4,8c0,3,0.5,5.8,1.4,8.3c0.9,2.6,2.2,4.8,4,6.6c1.7,1.9,3.8,3.3,6.1,4.4
				c2.4,1.1,5,1.6,8,1.6c2.7,0,5.3-0.4,7.6-1.2c1.4-0.5,2.7-1.1,4-1.8c1.4-0.8,2.2-2.3,2.2-3.9l0-8.5h-10.2c-2.5,0-4.4-2-4.4-4.4
				l0,0c0-2.5,2-4.4,4.4-4.4h15.4c2.5,0,4.4,2,4.4,4.4l0,17.9c0,1.4-0.7,2.7-1.8,3.6C471.6,341.2,470.6,341.8,469.6,342.5z"/>
			<path class="st1" d="M533.9,345.2l-11.4-16.5c-0.8-1.2-2.2-1.9-3.7-1.9h-10.3v15.8c0,2.5-2,4.4-4.4,4.4h-1.1
				c-2.5,0-4.4-2-4.4-4.4v-49.3c0-2.5,2-4.4,4.4-4.4h21c3.3,0,6.2,0.4,8.9,1.3c2.6,0.9,4.9,2.1,6.7,3.7c1.8,1.6,3.2,3.5,4.2,5.8
				c1,2.3,1.5,4.9,1.5,7.7c0,2.4-0.3,4.6-1,6.5c-0.7,1.9-1.6,3.6-2.8,5.1c-1.2,1.5-2.6,2.7-4.3,3.7c-0.3,0.2-0.6,0.3-0.9,0.5
				c-2.3,1.3-3,4.3-1.5,6.4l7.3,10.5c2.1,2.9,0,7-3.6,7h-1C536.1,347.1,534.8,346.4,533.9,345.2z M532,300.6c-2.1-1.6-5-2.5-8.8-2.5
				h-14.7v19.6h14.7c3.6,0,6.5-0.9,8.6-2.7c2.1-1.8,3.2-4.2,3.2-7.2C535.1,304.7,534.1,302.2,532,300.6z"/>
			<path class="st1" d="M579.4,293.3v49.3c0,2.5-2,4.4-4.4,4.4h-1.1c-2.5,0-4.4-2-4.4-4.4v-49.3c0-2.5,2-4.4,4.4-4.4h1.1
				C577.4,288.9,579.4,290.9,579.4,293.3z"/>
			<path class="st1" d="M655.5,329.4c-1.5,3.6-3.6,6.7-6.2,9.3c-2.7,2.6-5.9,4.7-9.6,6.1c-3.7,1.5-7.8,2.2-12.3,2.2h-16.9
				c-2.5,0-4.4-2-4.4-4.4v-49.3c0-2.5,2-4.4,4.4-4.4h16.9c4.5,0,8.6,0.7,12.3,2.2c3.7,1.5,6.9,3.5,9.6,6.1c2.7,2.6,4.8,5.7,6.2,9.2
				c1.5,3.5,2.2,7.4,2.2,11.5C657.7,322,657,325.8,655.5,329.4z M645.8,310.1c-1-2.4-2.3-4.5-4-6.3c-1.7-1.8-3.8-3.2-6.3-4.2
				c-2.5-1-5.2-1.5-8.2-1.5h-6.8c-2.5,0-4.4,2-4.4,4.4v30.8c0,2.5,2,4.4,4.4,4.4h6.8c3,0,5.7-0.5,8.2-1.5c2.5-1,4.5-2.3,6.3-4.1
				c1.7-1.8,3.1-3.8,4-6.3c1-2.4,1.4-5.1,1.4-8S646.7,312.5,645.8,310.1z"/>
			<path class="st1" d="M725.2,347.1h-0.9c-1.8,0-3.4-1.1-4.1-2.7l-3.5-8.5c-0.7-1.7-2.3-2.7-4.1-2.7h-21.1c-1.8,0-3.4,1.1-4.1,2.7
				l-3.6,8.6c-0.7,1.7-2.3,2.7-4.1,2.7h-0.6c-3.2,0-5.3-3.3-4.1-6.2l21.3-49.7c0.7-1.6,2.3-2.7,4.1-2.7h3.4c1.8,0,3.4,1.1,4.1,2.7
				l21.3,49.7C730.5,343.8,728.4,347.1,725.2,347.1z M702,300.7l-9.8,23.3h19.7L702,300.7z"/>
			<path class="st1" d="M802.5,329.4c-1.5,3.6-3.6,6.7-6.2,9.3c-2.7,2.6-5.9,4.7-9.6,6.1c-3.7,1.5-7.8,2.2-12.3,2.2h-16.9
				c-2.5,0-4.4-2-4.4-4.4v-49.3c0-2.5,2-4.4,4.4-4.4h16.9c4.5,0,8.6,0.7,12.3,2.2c3.7,1.5,6.9,3.5,9.6,6.1c2.7,2.6,4.8,5.7,6.2,9.2
				c1.5,3.5,2.2,7.4,2.2,11.5C804.7,322,803.9,325.8,802.5,329.4z M792.7,310.1c-1-2.4-2.3-4.5-4-6.3c-1.7-1.8-3.8-3.2-6.3-4.2
				c-2.5-1-5.2-1.5-8.2-1.5h-6.8c-2.5,0-4.4,2-4.4,4.4v30.8c0,2.5,2,4.4,4.4,4.4h6.8c3,0,5.7-0.5,8.2-1.5c2.5-1,4.5-2.3,6.3-4.1
				c1.7-1.8,3.1-3.8,4-6.3c1-2.4,1.4-5.1,1.4-8S793.7,312.5,792.7,310.1z"/>
		</g>
	</g>
	<g>
		<g>
			<line class="st3" x1="126" y1="104.6" x2="263.7" y2="90.4"/>
			<path class="st1" d="M126,104.6L126,104.6c-0.1-0.7,0.5-1.3,1.3-1.4l134.8-13.8c0.8-0.1,1.5,0.4,1.6,1.1l0,0
				c0.1,0.7-0.5,1.3-1.3,1.4l-134.8,13.8C126.8,105.7,126,105.2,126,104.6z"/>
		</g>
	</g>
	<g>
		<g>
			<line class="st3" x1="131.9" y1="108.4" x2="267.7" y2="94.6"/>
			<path class="st1" d="M131.9,108.4L131.9,108.4c-0.1-0.7,0.5-1.3,1.3-1.4L266,93.5c0.8-0.1,1.6,0.4,1.6,1.1l0,0
				c0.1,0.7-0.5,1.3-1.3,1.4l-132.8,13.5C132.7,109.6,132,109.1,131.9,108.4z"/>
		</g>
	</g>
	<g>
		<g>
			<line class="st3" x1="138.3" y1="112.5" x2="271.7" y2="98.8"/>
			<path class="st1" d="M138.3,112.5L138.3,112.5c-0.1-0.7,0.5-1.3,1.3-1.4L270,97.7c0.8-0.1,1.5,0.4,1.6,1.1l0,0
				c0.1,0.7-0.5,1.3-1.3,1.4l-130.4,13.3C139.1,113.6,138.4,113.1,138.3,112.5z"/>
		</g>
	</g>
	<path class="st1" d="M73.5,71.3L51.4,56.1l4.7-0.5l2.4-0.3l136.3-14.8c2.1-0.2,3.7-2,3.7-4.1v0c0-2.4-2.1-4.3-4.5-4.1l-150.9,16
		c-3.5,0.4-6.2,3.3-6.2,6.8V282l29.3,20.8l20-2v-212c0-4.5,3.4-8.3,7.9-8.7L214,68.3c2.9-0.3,5.1-2.7,5.1-5.6v0
		c0-3.3-2.9-5.9-6.2-5.6L73.5,71.3z"/>
	<g>
		<g>
			<line class="st3" x1="61.2" y1="58.8" x2="198.9" y2="44.7"/>
			<path class="st1" d="M61.2,58.8L61.2,58.8c-0.1-0.7,0.5-1.3,1.3-1.4l134.8-13.8c0.8-0.1,1.5,0.4,1.6,1.1l0,0
				c0.1,0.7-0.5,1.3-1.3,1.4L62.8,59.9C62,60,61.3,59.5,61.2,58.8z"/>
		</g>
	</g>
	<g>
		<g>
			<line class="st3" x1="67.1" y1="62.7" x2="202.9" y2="48.9"/>
			<path class="st1" d="M67.1,62.7L67.1,62.7c-0.1-0.7,0.5-1.3,1.3-1.4l132.8-13.5c0.8-0.1,1.6,0.4,1.6,1.1v0
				c0.1,0.7-0.5,1.3-1.3,1.4L68.8,63.8C68,63.9,67.2,63.4,67.1,62.7z"/>
		</g>
	</g>
	<g>
		<g>
			<line class="st3" x1="73.5" y1="66.7" x2="206.9" y2="53.1"/>
			<path class="st1" d="M73.5,66.7L73.5,66.7c-0.1-0.7,0.5-1.3,1.3-1.4L205.3,52c0.8-0.1,1.5,0.4,1.6,1.1v0c0.1,0.7-0.5,1.3-1.3,1.4
				L75.2,67.8C74.4,67.9,73.6,67.4,73.5,66.7z"/>
		</g>
	</g>
</g>
</svg>
