<?xml version="1.0" encoding="utf-8"?>
<!-- Generator: Adobe Illustrator 25.2.1, SVG Export Plug-In . SVG Version: 6.00 Build 0)  -->
<svg version="1.1" id="Capa_1" xmlns="http://www.w3.org/2000/svg" xmlns:xlink="http://www.w3.org/1999/xlink" x="0px" y="0px"
	 viewBox="0 0 146.6 87.1" style="enable-background:new 0 0 146.6 87.1;" xml:space="preserve">
<style type="text/css">
	.st0{fill-rule:evenodd;clip-rule:evenodd;fill:#FFFFFF;}
	.st1{fill:#FFFFFF;}
</style>
<g>
	<path class="st0" d="M1.8,72c14.3-0.7,25.6,3.6,34.8,13.5C28.1,71.8,14.3,68.9,1.8,72"/>
	<path class="st0" d="M13.3,68.4c17.7-2,23.8,3.7,28.4,11.1c0,0,0,0,0.1-0.1c21.3-26.3,62.2,3.3,84.5-11c0.1-0.1,0.2,0.1,0.1,0.1
		c-12.1,13.4-30.9,7.6-49.6,5.7c-16.6-1.8-28,1.7-33.4,11.3H40c-4.1-9.2-14.2-17-26.7-17"/>
	<path class="st0" d="M107.7,51.6"/>
	<path class="st1" d="M119,62.6l-1.1-0.2c-3.6-0.6-3.6-1.8-1.8-7.5l5.4-17.2c-0.6,0.1-1.3,0.2-1.9,0.2c-2.6,0-5-0.9-6.9-2.4
		l-6.1,19.5c-2,6.5-2.6,6.9-5.6,7.5l0,0c-1,0.2-2,0.1-2.9-0.1c-1-0.3-2-0.7-2.6-1.3c-1.7-1.8-3-8.1-4.6-17.2
		c-0.1-0.8-0.1-1.3,1.1-1.6c5.4-1.4,11.4-5,11.4-12c0-4.6-2.6-7.9-5.8-9.5c-3.4-1.6-7.9-2.2-13.7-2.2c-5.4,0-9.7,0.3-13.9,0.6
		c-0.8,0.4-1.1,1.8-0.4,2.4l2.2,0.6c2.2,0.6,2.2,1.6,0.7,6.4l-8.4,26.4c-2.1,6.5-2.6,7.1-5.6,7.6c-0.4,0.1-0.7,0.1-1.1,0.1
		c-0.6,0-1.1-0.1-1.7-0.2c-1-0.3-2.1-0.7-2.7-1.3c-1.7-1.8-3-8.1-4.6-17.2c-0.1-0.8-0.1-1.3,1.1-1.6c5.4-1.4,11.4-5,11.4-12
		c0-4.6-2.6-7.9-5.8-9.5c-3.4-1.6-7.9-2.2-13.7-2.2c-5.4,0-9.7,0.3-13.9,0.6c-0.8,0.4-1.1,1.8-0.4,2.4l2.2,0.6
		c2.2,0.6,2.2,1.6,0.7,6.4l-8.4,26.4C19.5,61.4,19,62,16,62.5l-2.2,0.4c-0.5,0.1-0.7,0.7-0.6,1.3c0,0.5,0.4,0.9,0.9,1
		c0.1,0,0.2,0.1,0.4,0c3.2-0.1,6.2-0.2,9.3-0.2c3.2,0,6.4,0.1,9.7,0.2c0.6,0,1.1-0.3,1.3-0.9c0,0,0,0,0,0c0.1-0.2,0.1-0.5,0-0.7
		c-0.1-0.4-0.5-0.8-1-0.9l-1.1-0.2c-3.6-0.7-3.6-1.9-1.8-7.6l2.9-8.8c0.5-1.4,0.7-1.6,2.5-1.6c2.1,0,2.9,0.7,3.4,3.1l2,10.2
		c0.6,3,1.5,4.7,2.6,5.7c0.3,0.3,0.6,0.5,0.8,0.7c0.8,0.5,2.1,0.8,3.7,1c0.6,0,1.2,0.1,1.8,0.1c1.4,0,2.6,0,3.7-0.1h2
		c3.5-0.1,6.7-0.2,10-0.2c3.2,0,6.4,0.1,9.7,0.2c0.6,0,1.1-0.3,1.3-0.9c0,0,0,0,0,0c0.1-0.2,0.1-0.5,0-0.7c-0.1-0.4-0.5-0.8-1-0.9
		l-1.1-0.2c-3.6-0.7-3.6-1.9-1.8-7.6l2.9-8.8c0.5-1.4,0.7-1.6,2.5-1.6c2.1,0,2.9,0.7,3.4,3.1l2,10.2c0.6,3,1.5,4.7,2.6,5.7
		c0.3,0.3,0.6,0.5,0.8,0.7c0.8,0.5,2.1,0.8,3.7,1c0.6,0,1.2,0.1,1.8,0.1c1.4,0,2.6,0,3.7-0.1h21.9v0c0.6,0,1.2-0.4,1.3-1
		c0,0,0,0,0-0.1C120.2,63.4,119.7,62.7,119,62.6z M38.9,41.4c-3.2,0-3.7-0.3-3.1-2.3L40.6,24c0.6-1.9,0.8-2.3,3.4-2.3
		c5.1,0,6.6,3.8,6.6,7.4C50.7,35.3,45.6,41.4,38.9,41.4z M81.4,41.4c-3.2,0-3.7-0.3-3.1-2.3L83.1,24c0.6-1.9,0.8-2.3,3.4-2.3
		c5.1,0,6.6,3.8,6.6,7.4C93.2,35.3,88.1,41.4,81.4,41.4z"/>
	<path class="st1" d="M132.1,26.7L132.1,26.7c0.9,0,1.5-0.7,1.4-1.5c-0.7-6.5-5.8-11.6-12.3-12.3c-0.8-0.1-1.5,0.5-1.5,1.3v0.1
		c0,0.7,0.5,1.3,1.2,1.3c5.2,0.6,9.3,4.7,9.9,9.9C130.8,26.2,131.4,26.7,132.1,26.7z"/>
	<path class="st1" d="M137.8,26.7L137.8,26.7c0.8,0,1.4-0.7,1.4-1.5c-0.7-9.6-8.4-17.3-18-18c-0.8-0.1-1.5,0.6-1.5,1.3v0.1
		c0,0.7,0.5,1.3,1.2,1.3c8.3,0.6,14.9,7.2,15.5,15.5C136.5,26.2,137.1,26.7,137.8,26.7z"/>
	<path class="st1" d="M119.7,2.9L119.7,2.9c0,0.7,0.6,1.3,1.3,1.4c11.3,0.7,20.4,9.8,21.1,21.1c0,0.7,0.6,1.3,1.4,1.3h0
		c0.8,0,1.4-0.7,1.4-1.4c-0.7-12.7-11-23-23.7-23.7C120.3,1.5,119.7,2.2,119.7,2.9z"/>
	<circle class="st0" cx="119.7" cy="26.7" r="7.4"/>
</g>
</svg>
