<?xml version="1.0" encoding="utf-8"?>
<!-- Generator: Adobe Illustrator 26.3.1, SVG Export Plug-In . SVG Version: 6.00 Build 0)  -->
<svg version="1.1" id="Capa_1" xmlns="http://www.w3.org/2000/svg" xmlns:xlink="http://www.w3.org/1999/xlink" x="0px" y="0px"
	 viewBox="0 0 1536 404.7" style="enable-background:new 0 0 1536 404.7;" xml:space="preserve">
<style type="text/css">
	.st0{fill:none;}
	.st1{fill-rule:evenodd;clip-rule:evenodd;fill:#113984;}
	.st2{fill-rule:evenodd;clip-rule:evenodd;fill:#009DE2;}
	.st3{fill-rule:evenodd;clip-rule:evenodd;fill:#172C70;}
	.st4{fill:#342D37;}
</style>
<path class="st0" d="M1448.8,322.4H87.2c-6.6,0-12-5.4-12-12v-216c0-6.6,5.4-12,12-12h1349c13.5,0,24.5,11,24.5,24.5v203.5
	C1460.8,317,1455.4,322.4,1448.8,322.4z"/>
<g>
	<g>
		<g>
			<path class="st1" d="M888,126.2c18.7,0,35.9,10.1,33.5,35.4c-2.8,29.9-18.9,46.6-44.3,46.7h-22.1c-3.2,0-4.7,2.6-5.6,7.9
				l-4.3,27.2c-0.6,4.1-2.8,6.1-5.9,6.1h-20.6c-3.3,0-4.4-2.1-3.7-6.8l17-109.2c0.8-5.4,2.9-7.4,6.5-7.4L888,126.2L888,126.2z
				 M854.4,184.6h16.8c10.5-0.4,17.5-7.7,18.2-20.8c0.4-8.1-5-13.9-13.7-13.8l-15.8,0.1L854.4,184.6L854.4,184.6z M977.6,241.2
				c1.9-1.7,3.8-2.6,3.5-0.5l-0.7,5.1c-0.4,2.6,0.7,4,3.2,4h18.3c3.1,0,4.6-1.3,5.3-6l11.3-70.8c0.6-3.6-0.3-5.3-3-5.3h-20.1
				c-1.8,0-2.7,1-3.2,3.8l-0.7,4.4c-0.4,2.3-1.4,2.7-2.4,0.4c-3.4-8.1-12.1-11.7-24.3-11.5c-28.2,0.6-47.3,22-49.3,49.5
				c-1.6,21.3,13.7,37.9,33.7,37.9C963.7,252.2,970.2,247.8,977.6,241.2L977.6,241.2z M962.2,230.3c-12.1,0-20.6-9.7-18.9-21.6
				c1.8-11.9,13.1-21.6,25.3-21.6c12.1,0,20.6,9.7,18.9,21.6C985.8,220.6,974.4,230.3,962.2,230.3L962.2,230.3z M1054.4,167.4h-18.5
				c-3.8,0-5.4,2.8-4.2,6.4l23,67.5l-22.7,32.1c-1.9,2.7-0.4,5.1,2.2,5.1h20.9c3.1,0,4.6-0.8,6.2-3l70.9-101.7
				c2.2-3.1,1.1-6.4-2.4-6.4l-19.7,0c-3.4,0-4.8,1.3-6.7,4.2l-29.6,42.9l-13.2-43C1059.8,168.8,1057.9,167.4,1054.4,167.4z"/>
			<path class="st2" d="M1206,126.2c18.7,0,35.9,10.1,33.5,35.4c-2.8,29.9-18.9,46.6-44.3,46.7h-22.1c-3.2,0-4.7,2.6-5.6,7.9
				l-4.3,27.2c-0.6,4.1-2.8,6.1-5.9,6.1h-20.6c-3.3,0-4.4-2.1-3.7-6.8l17-109.2c0.8-5.4,2.9-7.4,6.5-7.4L1206,126.2L1206,126.2z
				 M1172.4,184.6h16.8c10.5-0.4,17.5-7.7,18.2-20.8c0.4-8.1-5-13.9-13.7-13.8l-15.8,0.1L1172.4,184.6L1172.4,184.6z M1295.5,241.2
				c1.9-1.7,3.8-2.6,3.5-0.5l-0.7,5.1c-0.4,2.6,0.7,4,3.2,4h18.3c3.1,0,4.6-1.3,5.3-6l11.3-70.8c0.6-3.6-0.3-5.3-3-5.3h-20.1
				c-1.8,0-2.7,1-3.2,3.8l-0.7,4.4c-0.4,2.3-1.4,2.7-2.4,0.4c-3.4-8.1-12.1-11.7-24.3-11.5c-28.2,0.6-47.3,22-49.3,49.5
				c-1.6,21.3,13.7,37.9,33.7,37.9C1281.7,252.2,1288.2,247.8,1295.5,241.2L1295.5,241.2z M1280.2,230.3c-12.1,0-20.6-9.7-18.9-21.6
				c1.8-11.9,13.1-21.6,25.3-21.6c12.1,0,20.6,9.7,18.9,21.6C1303.7,220.6,1292.4,230.3,1280.2,230.3L1280.2,230.3z M1364.6,249.9
				h-21.1c-1.7,0-2.8-1.3-2.6-2.9l18.6-117.6c0.3-1.6,1.8-2.9,3.5-2.9h21.1c1.7,0,2.8,1.3,2.6,2.9L1368.1,247
				C1367.9,248.6,1366.3,249.9,1364.6,249.9z"/>
		</g>
		<g>
			<path class="st2" d="M696.1,162h42.9c23.1,0,31.7,11.7,30.4,28.9c-2.2,28.3-19.3,44-42,44h-11.5c-3.1,0-5.2,2.1-6,7.6L705,275
				c-0.3,2.1-1.4,3.4-3.1,3.5H675c-2.5,0-3.4-1.9-2.8-6.1l16.5-104.1C689.3,164,691.6,162,696.1,162z"/>
			<path class="st1" d="M669.2,126.2h43c12.1,0,26.5,0.4,36.1,8.9c6.4,5.7,9.8,14.7,9,24.4c-2.6,32.8-22.3,51.2-48.6,51.2h-21.2
				c-3.6,0-6,2.4-7,8.9l-5.9,37.6c-0.4,2.4-1.4,3.9-3.4,4.1h-26.5c-2.9,0-4-2.2-3.2-7.1l19.1-120.8
				C661.3,128.5,664,126.2,669.2,126.2z"/>
			<path class="st3" d="M681.1,215.7l7.5-47.5c0.7-4.2,2.9-6.2,7.5-6.2h42.9c7.1,0,12.9,1.1,17.4,3.2c-4.3,29.2-23.2,45.4-48,45.4
				h-21.2C684.5,210.6,682.4,212.1,681.1,215.7z"/>
		</g>
	</g>
	<g>
		<path class="st4" d="M149.2,229.5v-54.2h16.7c4.8,0,9,1.1,12.8,3.2c3.8,2.1,6.7,5.2,8.8,9.2c2.1,4,3.2,8.5,3.2,13.5v2.5
			c0,5-1,9.5-3.1,13.4c-2.1,3.9-5,7-8.8,9.1c-3.8,2.2-8,3.3-12.8,3.3H149.2z M160.4,184.3v36.2h5.4c4.4,0,7.7-1.4,10-4.3
			c2.3-2.9,3.5-6.9,3.5-12.2v-2.9c0-5.5-1.1-9.7-3.4-12.5c-2.3-2.8-5.6-4.3-10-4.3H160.4z"/>
		<path class="st4" d="M243.3,203.6c0,5.3-0.9,10-2.8,14s-4.6,7.1-8.1,9.3c-3.5,2.2-7.5,3.3-12.1,3.3c-4.5,0-8.5-1.1-12-3.2
			s-6.3-5.2-8.2-9.2c-1.9-4-2.9-8.6-2.9-13.8v-2.7c0-5.3,1-10,2.9-14.1c1.9-4.1,4.6-7.2,8.2-9.3c3.5-2.2,7.5-3.3,12-3.3
			c4.5,0,8.5,1.1,12,3.3c3.5,2.2,6.2,5.3,8.2,9.3s2.9,8.7,2.9,14.1V203.6z M232,201.1c0-5.7-1-10-3.1-13c-2-3-4.9-4.4-8.7-4.4
			c-3.7,0-6.6,1.5-8.7,4.4c-2,2.9-3.1,7.2-3.1,12.8v2.6c0,5.5,1,9.8,3.1,12.9c2,3.1,5,4.6,8.8,4.6c3.7,0,6.6-1.5,8.6-4.4
			s3-7.2,3.1-12.9V201.1z"/>
		<path class="st4" d="M295.5,229.5h-11.2l-21.7-35.7v35.7h-11.2v-54.2h11.2l21.8,35.7v-35.7h11.1V229.5z"/>
		<path class="st4" d="M335.9,218.3h-19.6l-3.7,11.2h-11.9l20.2-54.2h10.3l20.3,54.2h-11.9L335.9,218.3z M319.3,209.3h13.5L326,189
			L319.3,209.3z"/>
		<path class="st4" d="M376.6,209.6h-8.9v19.8h-11.2v-54.2h20.1c6.4,0,11.3,1.4,14.8,4.3s5.2,6.9,5.2,12.1c0,3.7-0.8,6.8-2.4,9.3
			c-1.6,2.5-4,4.4-7.3,5.9l11.7,22.1v0.5h-12L376.6,209.6z M367.7,200.6h9c2.8,0,5-0.7,6.5-2.1c1.5-1.4,2.3-3.4,2.3-5.9
			c0-2.6-0.7-4.6-2.2-6c-1.5-1.5-3.7-2.2-6.7-2.2h-9V200.6z"/>
		<path class="st4" d="M435.4,210.4v19.1h-11.2v-54.2h21.1c4.1,0,7.6,0.7,10.7,2.2s5.5,3.6,7.1,6.3c1.7,2.7,2.5,5.9,2.5,9.4
			c0,5.3-1.8,9.5-5.5,12.6c-3.6,3.1-8.7,4.6-15.1,4.6H435.4z M435.4,201.3h10c3,0,5.2-0.7,6.8-2.1s2.3-3.4,2.3-6
			c0-2.7-0.8-4.8-2.3-6.4s-3.7-2.5-6.5-2.5h-10.2V201.3z"/>
		<path class="st4" d="M517.9,203.6c0,5.3-0.9,10-2.8,14s-4.6,7.1-8.1,9.3c-3.5,2.2-7.5,3.3-12.1,3.3c-4.5,0-8.5-1.1-12-3.2
			c-3.5-2.2-6.3-5.2-8.2-9.2c-1.9-4-2.9-8.6-2.9-13.8v-2.7c0-5.3,1-10,2.9-14.1s4.6-7.2,8.2-9.3c3.5-2.2,7.5-3.3,12-3.3
			c4.5,0,8.5,1.1,12,3.3c3.5,2.2,6.2,5.3,8.2,9.3s2.9,8.7,2.9,14.1V203.6z M506.6,201.1c0-5.7-1-10-3.1-13c-2-3-4.9-4.4-8.7-4.4
			c-3.7,0-6.6,1.5-8.7,4.4s-3.1,7.2-3.1,12.8v2.6c0,5.5,1,9.8,3.1,12.9c2,3.1,5,4.6,8.8,4.6c3.7,0,6.6-1.5,8.6-4.4
			c2-2.9,3-7.2,3.1-12.9V201.1z"/>
		<path class="st4" d="M546.1,209.6h-8.9v19.8H526v-54.2h20.1c6.4,0,11.3,1.4,14.8,4.3s5.2,6.9,5.2,12.1c0,3.7-0.8,6.8-2.4,9.3
			c-1.6,2.5-4,4.4-7.3,5.9l11.7,22.1v0.5h-12L546.1,209.6z M537.2,200.6h9c2.8,0,5-0.7,6.5-2.1c1.5-1.4,2.3-3.4,2.3-5.9
			c0-2.6-0.7-4.6-2.2-6c-1.5-1.5-3.7-2.2-6.7-2.2h-9V200.6z"/>
	</g>
</g>
</svg>
