<?xml version="1.0" encoding="utf-8"?>
<!-- Generator: Adobe Illustrator 25.2.1, SVG Export Plug-In . SVG Version: 6.00 Build 0)  -->
<svg version="1.1" id="Capa_1" xmlns="http://www.w3.org/2000/svg" xmlns:xlink="http://www.w3.org/1999/xlink" x="0px" y="0px"
	 viewBox="0 0 404.72 404.72" style="enable-background:new 0 0 404.72 404.72;" xml:space="preserve">
<style type="text/css">
	.st0{fill:#FFFFFF;}
	.st1{fill:#FF0A19;}
</style>
<circle class="st0" cx="202.36" cy="196.68" r="194.88"/>
<g>
	<g>
		<path class="st1" d="M172.5,189.98c-6.94,0-12.59,5.65-12.59,12.59s5.65,12.59,12.59,12.59c6.94,0,12.59-5.65,12.59-12.59
			S179.44,189.98,172.5,189.98z M172.5,208.12c-3.06,0-5.55-2.49-5.55-5.55s2.49-5.55,5.55-5.55c3.06,0,5.55,2.49,5.55,5.55
			S175.56,208.12,172.5,208.12z"/>
		<polygon class="st1" points="201.12,190.58 197.69,190.58 197.69,183.15 190.16,183.15 190.16,190.58 186.73,190.58 
			186.73,197.39 190.16,197.39 190.16,214.56 197.69,214.56 197.69,197.39 201.12,197.39 		"/>
		<rect x="204.57" y="190.58" class="st1" width="7.52" height="23.97"/>
		<path class="st1" d="M208.33,178.96c-2.31,0-4.19,1.88-4.19,4.19s1.88,4.19,4.19,4.19c2.31,0,4.19-1.88,4.19-4.19
			S210.65,178.96,208.33,178.96z"/>
		<path class="st1" d="M316.23,197.04c2.47,0,4.48,2.01,4.48,4.48v13.03h7.52v-14.06c0-6.38-3.68-10.51-9.5-10.51
			c-2.39,0-4.91,1.05-6.99,4.4v-3.8h-7.52v23.98h7.52v-13.03C311.74,199.05,313.76,197.04,316.23,197.04z"/>
		<polygon class="st1" points="355.65,214.56 346.41,202.58 355,190.58 346.21,190.58 339.3,200.28 339.3,179.56 331.78,179.56 
			331.78,214.56 339.3,214.56 339.3,204.67 346.89,214.56 		"/>
		<path class="st1" d="M134.02,208.1c0.54-1.3,0.77-2.63,0.77-4.42c0-2.42-0.76-4.58-2.14-6.09c-1.61-1.76-4.35-3.22-8.16-4.34
			c-0.84-0.25-1.53-0.51-2.14-0.8c-0.67-0.33-1.17-0.73-1.59-1.19c-0.49-0.53-0.69-1.15-0.69-1.94c0-1.11,0.6-1.87,1.57-2.48
			c1.22-0.77,3.56-0.84,5.95,0.05c0.83,0.31,1.58,0.65,2.43,1.15l3.2-6.36c-1.19-0.71-2.88-1.63-4.59-2.07
			c-1.73-0.44-3.35-0.64-5.11-0.64c-1.76,0-3.37,0.27-4.77,0.79c-1.25,0.46-2.55,1.31-3.65,2.38c-1,0.97-1.91,2.35-2.43,3.64
			c-0.53,1.31-0.81,2.8-0.81,4.43c0,1.7,0.81,4.45,2.83,6.35c2.19,2.05,4.68,2.78,5.68,3.17c0.99,0.38,2.1,0.71,2.8,0.99
			c0.74,0.3,1.58,0.69,2.06,1.05c0.52,0.39,0.86,0.73,1.1,1.22c0.23,0.48,0.29,0.91,0.23,1.53c-0.07,0.79-0.43,1.46-1.07,2.07
			c-0.64,0.61-1.81,0.95-3.46,0.95c-1.38,0-2.79-0.39-4.2-1.01c-1.24-0.55-2.09-1.03-3.41-1.81l-3.76,6.55
			c2.62,2.33,6.88,3.88,10.67,3.88c1.94,0,3.95-0.32,5.67-0.91c1.62-0.55,3.23-1.45,4.3-2.4
			C132.44,210.82,133.48,209.39,134.02,208.1z"/>
		<g>
			<path class="st1" d="M360.95,206.17c-2.31,0-4.19,1.88-4.19,4.19s1.88,4.19,4.19,4.19c2.31,0,4.19-1.88,4.19-4.19
				S363.26,206.17,360.95,206.17z M360.95,213.71c-1.85,0-3.35-1.5-3.35-3.35s1.5-3.35,3.35-3.35c1.85,0,3.35,1.5,3.35,3.35
				S362.8,213.71,360.95,213.71z"/>
			<g>
				<path class="st1" d="M360.94,211.06h-0.67v1.59h-0.83v-4.58h1.75c0.84,0,1.52,0.68,1.52,1.52c0,0.58-0.36,1.09-0.88,1.33
					l0.96,1.73h-0.99L360.94,211.06z M360.27,210.3h0.96c0.35,0,0.64-0.31,0.64-0.7c0-0.39-0.29-0.7-0.64-0.7h-0.96V210.3z"/>
			</g>
		</g>
		<path class="st1" d="M154.62,206.04c-1.02,1.26-2.58,2.07-4.32,2.07c-3.06,0-5.55-2.49-5.55-5.55c0-3.06,2.49-5.55,5.55-5.55
			c1.74,0,3.3,0.81,4.32,2.07l4.99-4.99c-2.3-2.53-5.62-4.12-9.31-4.12c-6.94,0-12.98,4.94-12.98,12.59
			c0,7.65,6.04,12.59,12.98,12.59c3.68,0,7-1.59,9.31-4.12L154.62,206.04z"/>
		<path class="st1" d="M241.52,214.56v-23.98h-7.33v2.52l-0.68-0.61c-1.84-1.64-3.9-2.51-6.32-2.51c-6.47,0-11.94,5.76-11.94,12.59
			c0,6.82,5.47,12.59,11.94,12.59c2.42,0,4.48-0.87,6.32-2.51l0.68-0.61v2.52H241.52z M228.36,208.23c-3.12,0-5.66-2.54-5.66-5.66
			s2.54-5.66,5.66-5.66c3.12,0,5.66,2.54,5.66,5.66S231.49,208.23,228.36,208.23z"/>
		<path class="st1" d="M300.62,214.56v-23.98h-7.33v2.52l-0.68-0.61c-1.84-1.64-3.9-2.51-6.32-2.51c-6.47,0-11.94,5.76-11.94,12.59
			c0,6.82,5.47,12.59,11.94,12.59c2.42,0,4.48-0.87,6.32-2.51l0.68-0.61v2.52H300.62z M287.46,208.23c-3.12,0-5.66-2.54-5.66-5.66
			s2.54-5.66,5.66-5.66c3.12,0,5.66,2.54,5.66,5.66S290.58,208.23,287.46,208.23z"/>
		<path class="st1" d="M252.75,214.56v-2.52l0.68,0.61c1.84,1.64,3.9,2.51,6.32,2.51c6.47,0,11.94-5.76,11.94-12.59
			c0-6.82-5.47-12.59-11.94-12.59c-2.42,0-4.48,0.87-6.32,2.51l-0.68,0.61v-13.54h-7.33v35H252.75z M252.91,202.57
			c0-3.12,2.54-5.66,5.66-5.66c3.12,0,5.66,2.54,5.66,5.66s-2.54,5.66-5.66,5.66C255.45,208.23,252.91,205.69,252.91,202.57z"/>
	</g>
	<g>
		<path class="st1" d="M92.81,173.95H72.29c-11.7,0-21.33,8.84-22.59,20.2h0c-1.8-3.26-2.83-7-2.83-10.99
			c0-12.55,10.18-22.73,22.73-22.73H105L92.81,173.95z"/>
		<path class="st1" d="M51.78,219.41h20.51c11.7,0,21.33-8.84,22.59-20.2l0,0c1.8,3.26,2.83,7,2.83,10.99
			c0,12.55-10.18,22.73-22.73,22.73h-35.4L51.78,219.41z"/>
		<circle class="st1" cx="72.29" cy="196.68" r="18.26"/>
	</g>
</g>
</svg>
