<?xml version="1.0" encoding="utf-8"?>
<!-- Generator: Adobe Illustrator 28.1.0, SVG Export Plug-In . SVG Version: 6.00 Build 0)  -->
<svg version="1.1" id="Capa_1" xmlns="http://www.w3.org/2000/svg" xmlns:xlink="http://www.w3.org/1999/xlink" x="0px" y="0px"
	 viewBox="0 0 183 54.2" style="enable-background:new 0 0 183 54.2;" xml:space="preserve">
<style type="text/css">
	.st0{fill-rule:evenodd;clip-rule:evenodd;fill:#FFFFFF;}
	.st1{fill:#FFFFFF;}
</style>
<g>
	<path d="M165.6,50.8H17.4c-3.3,0-5.9-2.6-5.9-5.9V9.3c0-3.3,2.6-5.9,5.9-5.9h148.1c3.3,0,5.9,2.6,5.9,5.9v35.6
		C171.5,48.2,168.9,50.8,165.6,50.8z"/>
	<path class="st0" d="M47.6,29.1c0-3.8,3.1-5.7,3.2-5.8c-1.8-2.6-4.5-3-5.4-3c-2.3-0.2-4.5,1.4-5.7,1.4c-1.2,0-3-1.4-4.9-1.3
		c-2.5,0-4.8,1.5-6.1,3.8c-2.6,4.7-0.7,11.5,1.9,15.3c1.3,1.9,2.7,3.9,4.7,3.8c1.9-0.1,2.6-1.2,4.9-1.2c2.3,0,2.9,1.2,4.9,1.2
		c2,0,3.3-1.9,4.5-3.7c1.5-2.1,2-4.2,2.1-4.3C51.6,35.2,47.7,33.7,47.6,29.1"/>
	<path class="st0" d="M43.9,17.8c1-1.3,1.7-3.1,1.5-4.9c-1.5,0.1-3.3,1-4.4,2.3c-0.9,1.1-1.8,3-1.6,4.7
		C41.1,20.1,42.8,19.1,43.9,17.8"/>
	<path class="st0" d="M75.6,38.4h-2.8l-1.5-4.9h-5.3l-1.4,4.9h-2.7l5.2-16.6h3.2L75.6,38.4z M70.9,31.4l-1.4-4.3
		c-0.1-0.4-0.4-1.5-0.8-3.1l0,0c-0.2,0.7-0.4,1.8-0.8,3.1l-1.3,4.3H70.9z"/>
	<path class="st0" d="M89.1,32.2c0,2-0.5,3.7-1.6,4.8c-1,1.1-2.2,1.6-3.6,1.6c-1.5,0-2.6-0.6-3.3-1.7h0v6.3h-2.6V30.3
		c0-1.3,0-2.6-0.1-3.9h2.3l0.1,1.9h0c0.9-1.4,2.2-2.1,3.9-2.1c1.4,0,2.5,0.6,3.5,1.7C88.6,28.9,89.1,30.4,89.1,32.2 M86.4,32.3
		c0-1.2-0.3-2.1-0.8-2.9c-0.6-0.8-1.3-1.2-2.3-1.2c-0.6,0-1.2,0.2-1.7,0.7c-0.5,0.4-0.9,1-1,1.7c-0.1,0.3-0.1,0.6-0.1,0.8l0,2
		c0,0.9,0.3,1.6,0.8,2.2c0.5,0.6,1.2,0.9,2,0.9c1,0,1.7-0.4,2.3-1.2C86.1,34.6,86.4,33.6,86.4,32.3z"/>
	<path class="st0" d="M102.5,32.2c0,2-0.5,3.7-1.6,4.8c-1,1.1-2.2,1.6-3.6,1.6c-1.5,0-2.6-0.6-3.3-1.7h0v6.3h-2.6V30.3
		c0-1.3,0-2.6-0.1-3.9h2.3l0.1,1.9h0c0.9-1.4,2.2-2.1,3.9-2.1c1.4,0,2.5,0.6,3.5,1.7C102.1,28.9,102.5,30.4,102.5,32.2 M99.9,32.3
		c0-1.2-0.3-2.1-0.8-2.9c-0.6-0.8-1.3-1.2-2.3-1.2c-0.6,0-1.2,0.2-1.7,0.7c-0.5,0.4-0.9,1-1,1.7c-0.1,0.3-0.1,0.6-0.1,0.8v2
		c0,0.9,0.3,1.6,0.8,2.2c0.5,0.6,1.2,0.9,2,0.9c1,0,1.7-0.4,2.3-1.2C99.6,34.6,99.9,33.6,99.9,32.3z"/>
	<path class="st0" d="M117.6,33.7c0,1.4-0.5,2.6-1.4,3.5c-1.1,1-2.5,1.5-4.4,1.5c-1.7,0-3.1-0.3-4.2-1l0.6-2.2
		c1.1,0.7,2.4,1.1,3.8,1.1c1,0,1.7-0.2,2.3-0.7c0.5-0.5,0.8-1.1,0.8-1.8c0-0.7-0.2-1.2-0.7-1.7c-0.4-0.5-1.2-0.9-2.2-1.3
		c-2.8-1.1-4.3-2.7-4.3-4.8c0-1.4,0.5-2.5,1.5-3.4c1-0.9,2.3-1.3,4-1.3c1.5,0,2.7,0.3,3.7,0.8l-0.7,2.2c-0.9-0.5-1.9-0.8-3.1-0.8
		c-0.9,0-1.6,0.2-2.1,0.7c-0.4,0.4-0.7,0.9-0.7,1.5c0,0.7,0.2,1.2,0.7,1.6c0.4,0.4,1.2,0.8,2.4,1.3c1.4,0.6,2.4,1.2,3.1,2
		C117.2,31.6,117.6,32.6,117.6,33.7"/>
	<path class="st0" d="M126.2,28.4h-2.9v5.8c0,1.5,0.5,2.2,1.5,2.2c0.5,0,0.9,0,1.2-0.1l0.1,2c-0.5,0.2-1.2,0.3-2,0.3
		c-1,0-1.8-0.3-2.4-1c-0.6-0.6-0.9-1.7-0.9-3.2v-6H119v-2h1.7v-2.2l2.6-0.8v3h2.9V28.4z"/>
	<path class="st0" d="M139.1,32.3c0,1.8-0.5,3.4-1.5,4.5c-1.1,1.2-2.5,1.8-4.3,1.8c-1.7,0-3.1-0.6-4.1-1.8c-1-1.2-1.5-2.6-1.5-4.4
		c0-1.9,0.5-3.4,1.6-4.6c1.1-1.2,2.5-1.8,4.3-1.8c1.7,0,3.1,0.6,4.1,1.8C138.6,29,139.1,30.5,139.1,32.3 M136.4,32.4
		c0-1.1-0.2-2.1-0.7-2.8c-0.5-1-1.3-1.4-2.3-1.4c-1,0-1.8,0.5-2.4,1.4c-0.5,0.8-0.7,1.8-0.7,2.9c0,1.1,0.2,2.1,0.7,2.8
		c0.6,1,1.3,1.4,2.4,1.4c1,0,1.8-0.5,2.3-1.5C136.2,34.4,136.4,33.5,136.4,32.4z"/>
	<path class="st0" d="M147.6,28.7c-0.3,0-0.5-0.1-0.8-0.1c-0.9,0-1.6,0.4-2.1,1.1c-0.4,0.6-0.7,1.4-0.7,2.4v6.3h-2.6l0-8.2
		c0-1.4,0-2.6-0.1-3.8h2.3l0.1,2.3h0.1c0.3-0.8,0.7-1.4,1.3-1.9c0.6-0.4,1.2-0.6,1.9-0.6c0.2,0,0.5,0,0.7,0L147.6,28.7z"/>
	<path class="st0" d="M159.2,31.8c0,0.5,0,0.9-0.1,1.2h-7.8c0,1.2,0.4,2.1,1.1,2.7c0.7,0.6,1.5,0.8,2.6,0.8c1.2,0,2.2-0.2,3.2-0.6
		l0.4,1.8c-1.1,0.5-2.4,0.7-3.9,0.7c-1.8,0-3.2-0.5-4.3-1.6c-1-1.1-1.6-2.6-1.6-4.4c0-1.8,0.5-3.3,1.4-4.5c1-1.3,2.4-1.9,4.1-1.9
		c1.7,0,3,0.6,3.8,1.9C158.8,29.1,159.2,30.3,159.2,31.8 M156.7,31.1c0-0.8-0.2-1.5-0.5-2c-0.5-0.7-1.1-1.1-2.1-1.1
		c-0.9,0-1.5,0.4-2.1,1.1c-0.4,0.6-0.7,1.3-0.8,2.1H156.7z"/>
	<g>
		<path class="st1" d="M61.3,11.5h2.8c2,0,3.4,1.2,3.4,3.1s-1.4,3.1-3.4,3.1h-2.8V11.5z M64,16.5c1.2,0,2-0.7,2-1.9s-0.8-1.9-2-1.9
			h-1.3v3.8H64z"/>
		<path class="st1" d="M68.2,11.5c0-0.4,0.3-0.8,0.9-0.8s0.9,0.3,0.9,0.7c0,0.5-0.3,0.8-0.9,0.8S68.2,11.9,68.2,11.5z M68.4,12.9
			h1.4v4.7h-1.4V12.9z"/>
		<path class="st1" d="M70.6,17.2l0.5-1c0.4,0.3,1.1,0.5,1.6,0.5c0.6,0,0.9-0.2,0.9-0.4c0-0.8-2.9,0-2.9-1.9c0-0.9,0.8-1.5,2.2-1.5
			c0.6,0,1.4,0.1,1.8,0.4l-0.5,1c-0.5-0.3-0.9-0.4-1.4-0.4c-0.6,0-0.9,0.2-0.9,0.4c0,0.8,2.9,0,2.9,1.9c0,0.9-0.8,1.5-2.2,1.5
			C71.8,17.7,71,17.5,70.6,17.2z"/>
		<path class="st1" d="M80.8,15.3c0,1.5-1,2.4-2.4,2.4c-0.6,0-1.1-0.2-1.4-0.6v2.2h-1.4v-6.4H77v0.5c0.3-0.4,0.9-0.6,1.5-0.6
			C79.8,12.8,80.8,13.8,80.8,15.3z M79.5,15.3c0-0.8-0.5-1.3-1.2-1.3c-0.7,0-1.2,0.5-1.2,1.3s0.5,1.3,1.2,1.3
			C78.9,16.6,79.5,16.1,79.5,15.3z"/>
		<path class="st1" d="M81.4,15.3c0-1.4,1.1-2.4,2.6-2.4c1.5,0,2.6,1,2.6,2.4s-1.1,2.4-2.6,2.4C82.5,17.7,81.4,16.7,81.4,15.3z
			 M85.2,15.3c0-0.8-0.5-1.3-1.2-1.3c-0.7,0-1.2,0.5-1.2,1.3s0.5,1.3,1.2,1.3C84.7,16.6,85.2,16.1,85.2,15.3z"/>
		<path class="st1" d="M92.3,14.9v2.7H91v-2.5c0-0.8-0.4-1.1-1-1.1c-0.7,0-1.1,0.4-1.1,1.3v2.3h-1.4v-4.7h1.3v0.6
			c0.4-0.4,0.9-0.6,1.6-0.6C91.5,12.8,92.3,13.5,92.3,14.9z"/>
		<path class="st1" d="M93.4,11.5c0-0.4,0.3-0.8,0.9-0.8s0.9,0.3,0.9,0.7c0,0.5-0.3,0.8-0.9,0.8S93.4,11.9,93.4,11.5z M93.6,12.9
			h1.4v4.7h-1.4V12.9z"/>
		<path class="st1" d="M101.3,15.3c0,1.5-1,2.4-2.4,2.4c-0.6,0-1.1-0.2-1.5-0.6v0.5h-1.3v-6.5h1.4v2.3c0.4-0.4,0.8-0.6,1.4-0.6
			C100.3,12.8,101.3,13.8,101.3,15.3z M100,15.3c0-0.8-0.5-1.3-1.2-1.3c-0.7,0-1.2,0.5-1.2,1.3s0.5,1.3,1.2,1.3
			C99.4,16.6,100,16.1,100,15.3z"/>
		<path class="st1" d="M102.3,11.1h1.4v6.5h-1.4V11.1z"/>
		<path class="st1" d="M109.5,15.7h-3.6c0.1,0.6,0.6,0.9,1.4,0.9c0.5,0,0.9-0.1,1.2-0.5l0.7,0.8c-0.4,0.5-1.1,0.8-1.9,0.8
			c-1.6,0-2.7-1-2.7-2.4c0-1.4,1.1-2.4,2.5-2.4c1.4,0,2.5,0.9,2.5,2.4C109.5,15.4,109.5,15.5,109.5,15.7z M105.9,14.9h2.3
			c-0.1-0.6-0.5-1-1.2-1C106.4,13.9,106,14.3,105.9,14.9z"/>
		<path class="st1" d="M117.5,15.7h-3.6c0.1,0.6,0.6,0.9,1.4,0.9c0.5,0,0.9-0.1,1.2-0.5l0.7,0.8c-0.4,0.5-1.1,0.8-1.9,0.8
			c-1.6,0-2.7-1-2.7-2.4c0-1.4,1.1-2.4,2.5-2.4c1.4,0,2.5,0.9,2.5,2.4C117.5,15.4,117.5,15.5,117.5,15.7z M113.9,14.9h2.3
			c-0.1-0.6-0.5-1-1.2-1C114.5,13.9,114,14.3,113.9,14.9z"/>
		<path class="st1" d="M123.3,14.9v2.7h-1.4v-2.5c0-0.8-0.4-1.1-1-1.1c-0.7,0-1.1,0.4-1.1,1.3v2.3h-1.4v-4.7h1.3v0.6
			c0.4-0.4,0.9-0.6,1.6-0.6C122.4,12.8,123.3,13.5,123.3,14.9z"/>
		<path class="st1" d="M124.2,13.7c0-0.5,0.4-0.8,0.9-0.8s0.9,0.3,0.9,0.8c0,0.5-0.4,0.9-0.9,0.9S124.2,14.2,124.2,13.7z
			 M124.2,16.8c0-0.5,0.4-0.8,0.9-0.8s0.9,0.3,0.9,0.8c0,0.5-0.4,0.9-0.9,0.9S124.2,17.3,124.2,16.8z"/>
	</g>
</g>
</svg>
