<?xml version="1.0" encoding="utf-8"?>
<!-- Generator: Adobe Illustrator 28.1.0, SVG Export Plug-In . SVG Version: 6.00 Build 0)  -->
<svg version="1.1" id="Capa_1" xmlns="http://www.w3.org/2000/svg" xmlns:xlink="http://www.w3.org/1999/xlink" x="0px" y="0px"
	 viewBox="0 0 183 54.2" style="enable-background:new 0 0 183 54.2;" xml:space="preserve">
<style type="text/css">
	.st0{fill:#FFFFFF;}
	.st1{fill:url(#SVGID_1_);}
	.st2{fill:url(#SVGID_00000183213060441198445870000003258602317026037181_);}
	.st3{fill:url(#SVGID_00000020363371212216270140000011150783758738045340_);}
	.st4{fill:url(#SVGID_00000047780826109192473740000009164401131174315405_);}
</style>
<g>
	<path d="M165.6,50.8H17.4c-3.3,0-5.9-2.6-5.9-5.9V9.3c0-3.3,2.6-5.9,5.9-5.9h148.1c3.3,0,5.9,2.6,5.9,5.9v35.6
		C171.5,48.2,168.9,50.8,165.6,50.8z"/>
	<path class="st0" d="M92.2,29.6c-2.8,0-5.1,2.1-5.1,5.1c0,2.8,2.3,5.1,5.1,5.1c2.8,0,5.1-2.1,5.1-5.1
		C97.3,31.6,95.1,29.6,92.2,29.6z M92.2,37.7c-1.5,0-2.8-1.3-2.8-3.1s1.3-3.1,2.8-3.1c1.5,0,2.8,1.2,2.8,3.1
		C95.1,36.3,93.8,37.7,92.2,37.7z M81.2,29.6c-2.8,0-5.1,2.1-5.1,5.1c0,2.8,2.3,5.1,5.1,5.1s5.1-2.1,5.1-5.1
		C86.3,31.6,84,29.6,81.2,29.6z M81.2,37.7c-1.5,0-2.8-1.3-2.8-3.1s1.3-3.1,2.8-3.1c1.5,0,2.8,1.2,2.8,3.1
		C84,36.3,82.7,37.7,81.2,37.7z M68,31.1v2.1h5.1c-0.1,1.2-0.6,2.1-1.2,2.7c-0.7,0.7-1.9,1.5-3.9,1.5c-3.2,0-5.6-2.5-5.6-5.7
		s2.5-5.7,5.6-5.7c1.7,0,3,0.7,3.9,1.5l1.5-1.5c-1.3-1.2-3-2.1-5.3-2.1c-4.3,0-7.9,3.6-7.9,7.8s3.7,7.8,7.9,7.8c2.4,0,4-0.7,5.5-2.3
		c1.4-1.4,1.9-3.4,1.9-5c0-0.5,0-0.9-0.1-1.3L68,31.1L68,31.1z M121.8,32.8c-0.5-1.2-1.7-3.2-4.3-3.2s-4.7,2-4.7,5.1
		c0,2.8,2.1,5.1,5,5.1c2.3,0,3.7-1.4,4.1-2.3l-1.7-1.2c-0.6,0.8-1.3,1.4-2.5,1.4c-1.2,0-1.9-0.5-2.5-1.5l6.8-2.8L121.8,32.8
		L121.8,32.8z M115,34.5c0-1.9,1.5-3,2.6-3c0.8,0,1.7,0.5,1.9,1.1L115,34.5L115,34.5z M109.4,39.3h2.3V24.5h-2.3V39.3z M105.8,30.7
		c-0.6-0.6-1.5-1.2-2.7-1.2c-2.5,0-4.9,2.3-4.9,5.1s2.3,5,4.9,5c1.2,0,2.1-0.6,2.6-1.2h0.1v0.7c0,1.9-1.1,3-2.7,3
		c-1.3,0-2.3-0.9-2.5-1.8l-1.9,0.8c0.6,1.3,2,3,4.5,3c2.6,0,4.7-1.5,4.7-5.2v-9h-2.1L105.8,30.7L105.8,30.7z M103.2,37.7
		c-1.5,0-2.8-1.3-2.8-3.1c0-1.8,1.3-3.1,2.8-3.1c1.5,0,2.7,1.3,2.7,3.1C106,36.3,104.8,37.7,103.2,37.7z M132.2,24.5h-5.3v14.8h2.3
		v-5.6h3.1c2.5,0,4.9-1.8,4.9-4.6S134.6,24.5,132.2,24.5z M132.3,31.6h-3.2v-5.1h3.2c1.7,0,2.6,1.4,2.6,2.5
		C134.8,30.3,133.8,31.6,132.3,31.6L132.3,31.6z M145.9,29.5c-1.7,0-3.3,0.7-3.9,2.3l2,0.8c0.5-0.8,1.2-1.1,2-1.1
		c1.2,0,2.3,0.7,2.4,1.9v0.1c-0.4-0.2-1.3-0.6-2.3-0.6c-2.1,0-4.3,1.2-4.3,3.3c0,2,1.8,3.3,3.7,3.3c1.5,0,2.3-0.7,2.8-1.4h0.1v1.2
		h2.1v-5.7C150.4,31,148.4,29.5,145.9,29.5L145.9,29.5z M145.7,37.7c-0.7,0-1.8-0.4-1.8-1.3c0-1.2,1.3-1.5,2.4-1.5
		c0.9,0,1.4,0.2,2,0.5C148,36.7,146.8,37.7,145.7,37.7z M158.1,29.8l-2.5,6.4h-0.1l-2.6-6.4h-2.4l3.9,9l-2.3,5h2.3l6-14H158.1
		L158.1,29.8z M138.2,39.3h2.3V24.5h-2.3V39.3z"/>
	<g>
		<path class="st0" d="M60.2,11.5H63c2,0,3.4,1.2,3.4,3.1S65,17.6,63,17.6h-2.8V11.5z M62.9,16.5c1.2,0,2-0.7,2-1.9s-0.8-1.9-2-1.9
			h-1.3v3.8H62.9z"/>
		<path class="st0" d="M67.2,11.5c0-0.4,0.3-0.8,0.9-0.8s0.9,0.3,0.9,0.7c0,0.5-0.3,0.8-0.9,0.8S67.2,11.9,67.2,11.5z M67.4,12.9
			h1.4v4.7h-1.4V12.9z"/>
		<path class="st0" d="M69.6,17.2l0.5-1c0.4,0.3,1.1,0.5,1.6,0.5c0.6,0,0.9-0.2,0.9-0.4c0-0.8-2.9,0-2.9-1.9c0-0.9,0.8-1.5,2.2-1.5
			c0.6,0,1.4,0.1,1.8,0.4l-0.5,1c-0.5-0.3-0.9-0.4-1.4-0.4c-0.6,0-0.9,0.2-0.9,0.4c0,0.8,2.9,0,2.9,1.9c0,0.9-0.8,1.5-2.2,1.5
			C70.8,17.7,70,17.5,69.6,17.2z"/>
		<path class="st0" d="M79.8,15.3c0,1.5-1,2.4-2.4,2.4c-0.6,0-1.1-0.2-1.4-0.6v2.2h-1.4v-6.4H76v0.5c0.3-0.4,0.9-0.6,1.5-0.6
			C78.8,12.8,79.8,13.8,79.8,15.3z M78.4,15.3c0-0.8-0.5-1.3-1.2-1.3c-0.7,0-1.2,0.5-1.2,1.3c0,0.8,0.5,1.3,1.2,1.3
			C77.9,16.6,78.4,16.1,78.4,15.3z"/>
		<path class="st0" d="M80.4,15.3c0-1.4,1.1-2.4,2.6-2.4c1.5,0,2.6,1,2.6,2.4s-1.1,2.4-2.6,2.4C81.5,17.7,80.4,16.7,80.4,15.3z
			 M84.2,15.3c0-0.8-0.5-1.3-1.2-1.3c-0.7,0-1.2,0.5-1.2,1.3c0,0.8,0.5,1.3,1.2,1.3C83.7,16.6,84.2,16.1,84.2,15.3z"/>
		<path class="st0" d="M91.3,14.9v2.7h-1.4v-2.5c0-0.8-0.4-1.1-1-1.1c-0.7,0-1.1,0.4-1.1,1.3v2.3h-1.4v-4.7h1.3v0.6
			c0.4-0.4,0.9-0.6,1.6-0.6C90.5,12.8,91.3,13.5,91.3,14.9z"/>
		<path class="st0" d="M92.4,11.5c0-0.4,0.3-0.8,0.9-0.8s0.9,0.3,0.9,0.7c0,0.5-0.3,0.8-0.9,0.8S92.4,11.9,92.4,11.5z M92.5,12.9
			h1.4v4.7h-1.4V12.9z"/>
		<path class="st0" d="M100.3,15.3c0,1.5-1,2.4-2.4,2.4c-0.6,0-1.1-0.2-1.5-0.6v0.5h-1.3v-6.5h1.4v2.3c0.4-0.4,0.8-0.6,1.4-0.6
			C99.3,12.8,100.3,13.8,100.3,15.3z M98.9,15.3c0-0.8-0.5-1.3-1.2-1.3c-0.7,0-1.2,0.5-1.2,1.3c0,0.8,0.5,1.3,1.2,1.3
			C98.4,16.6,98.9,16.1,98.9,15.3z"/>
		<path class="st0" d="M101.2,11.1h1.4v6.5h-1.4V11.1z"/>
		<path class="st0" d="M108.5,15.7h-3.6c0.1,0.6,0.6,0.9,1.4,0.9c0.5,0,0.9-0.1,1.2-0.5l0.7,0.8c-0.4,0.5-1.1,0.8-1.9,0.8
			c-1.6,0-2.7-1-2.7-2.4c0-1.4,1.1-2.4,2.5-2.4c1.4,0,2.5,0.9,2.5,2.4C108.5,15.4,108.5,15.5,108.5,15.7z M104.9,14.9h2.3
			c-0.1-0.6-0.5-1-1.2-1C105.4,13.9,105,14.2,104.9,14.9z"/>
		<path class="st0" d="M116.5,15.7h-3.6c0.1,0.6,0.6,0.9,1.4,0.9c0.5,0,0.9-0.1,1.2-0.5l0.7,0.8c-0.4,0.5-1.1,0.8-1.9,0.8
			c-1.6,0-2.7-1-2.7-2.4c0-1.4,1.1-2.4,2.5-2.4c1.4,0,2.5,0.9,2.5,2.4C116.5,15.4,116.5,15.5,116.5,15.7z M112.9,14.9h2.3
			c-0.1-0.6-0.5-1-1.2-1C113.4,13.9,113,14.2,112.9,14.9z"/>
		<path class="st0" d="M122.2,14.9v2.7h-1.4v-2.5c0-0.8-0.4-1.1-1-1.1c-0.7,0-1.1,0.4-1.1,1.3v2.3h-1.4v-4.7h1.3v0.6
			c0.4-0.4,0.9-0.6,1.6-0.6C121.4,12.8,122.2,13.5,122.2,14.9z"/>
		<path class="st0" d="M123.1,13.7c0-0.5,0.4-0.8,0.9-0.8s0.9,0.3,0.9,0.8c0,0.5-0.4,0.9-0.9,0.9S123.1,14.2,123.1,13.7z
			 M123.1,16.8c0-0.5,0.4-0.8,0.9-0.8s0.9,0.3,0.9,0.8c0,0.5-0.4,0.9-0.9,0.9S123.1,17.3,123.1,16.8z"/>
	</g>
	
		<linearGradient id="SVGID_1_" gradientUnits="userSpaceOnUse" x1="1104.6687" y1="722.8416" x2="1120.6398" y2="722.8416" gradientTransform="matrix(0 1 -1 0 754.8842 -1093.5314)">
		<stop  offset="0" style="stop-color:#32A071"/>
		<stop  offset="6.850000e-02" style="stop-color:#2DA771"/>
		<stop  offset="0.4762" style="stop-color:#15CF74"/>
		<stop  offset="0.8009" style="stop-color:#06E775"/>
		<stop  offset="1" style="stop-color:#00F076"/>
	</linearGradient>
	<path class="st1" d="M42,21.5l-4.6,5.6L22.1,11.3c0.4-0.2,0.9-0.3,1.3-0.1L42,21.5z"/>
	
		<linearGradient id="SVGID_00000120517044094270546070000012874979421343418765_" gradientUnits="userSpaceOnUse" x1="1120.6398" y1="722.8386" x2="1136.6163" y2="722.8386" gradientTransform="matrix(0 1 -1 0 754.8842 -1093.5314)">
		<stop  offset="0" style="stop-color:#FF3A44"/>
		<stop  offset="1" style="stop-color:#C31162"/>
	</linearGradient>
	<path style="fill:url(#SVGID_00000120517044094270546070000012874979421343418765_);" d="M22.1,42.9l15.3-15.8l4.6,5.6L23.4,42.9
		C23,43.2,22.5,43.1,22.1,42.9z"/>
	
		<linearGradient id="SVGID_00000109714003971850794030000004130226312640566413_" gradientUnits="userSpaceOnUse" x1="1104.8754" y1="725.4159" x2="1136.4097" y2="725.4159" gradientTransform="matrix(0 1 -1 0 754.8842 -1093.5314)">
		<stop  offset="0" style="stop-color:#00A0FF"/>
		<stop  offset="6.574450e-03" style="stop-color:#00A1FF"/>
		<stop  offset="0.2601" style="stop-color:#00BEFF"/>
		<stop  offset="0.5122" style="stop-color:#00D2FF"/>
		<stop  offset="0.7604" style="stop-color:#00DFFF"/>
		<stop  offset="1" style="stop-color:#00E3FF"/>
	</linearGradient>
	<path style="fill:url(#SVGID_00000109714003971850794030000004130226312640566413_);" d="M22.1,42.9c-0.3-0.2-0.5-0.6-0.5-1V12.3
		c0-0.4,0.2-0.8,0.5-1l15.3,15.8L22.1,42.9z"/>
	
		<linearGradient id="SVGID_00000139994752155763451140000006880549406789833402_" gradientUnits="userSpaceOnUse" x1="1115.0637" y1="710.7688" x2="1126.2213" y2="710.7688" gradientTransform="matrix(0 1 -1 0 754.8842 -1093.5314)">
		<stop  offset="0" style="stop-color:#FFE000"/>
		<stop  offset="0.4087" style="stop-color:#FFBD00"/>
		<stop  offset="0.7754" style="stop-color:#FFA500"/>
		<stop  offset="1" style="stop-color:#FF9C00"/>
	</linearGradient>
	<path style="fill:url(#SVGID_00000139994752155763451140000006880549406789833402_);" d="M42,32.7l-4.6-5.6l4.6-5.6l8.3,4.6
		c0.4,0.2,0.6,0.6,0.6,1c0,0.4-0.2,0.8-0.6,1L42,32.7z"/>
</g>
</svg>
